<?xml version="1.0" encoding="UTF-8"?><svg id="Layer_1" xmlns="http://www.w3.org/2000/svg" width="204" height="183" viewBox="0 0 204 183"><defs><style>.cls-1{fill:#fff;}.cls-2{fill:#fce7e9;}.cls-3{fill:#fce4e4;}</style></defs><path class="cls-1" d="M102,182.92c-32.81,0-65.63-.05-98.44,.08-2.97,.01-3.57-.6-3.56-3.56,.11-58.63,.11-117.25,0-175.88C0,.6,.6,0,3.56,0,69.19,.11,134.81,.11,200.44,0c2.97,0,3.57,.6,3.56,3.56-.11,58.63-.11,117.25,0,175.88,0,2.96-.6,3.57-3.56,3.56-32.81-.13-65.62-.08-98.44-.08Zm-29.53-7c5.89,.54,12.7,.14,19.3-1.25,33.98-7.14,61.58-24.91,83.07-51.84,14.2-17.79,23-37.78,22.24-61.37-.63-19.62-8.32-35.03-24.68-45.79-18.72-12.31-39.61-12.74-60.64-9.11C79.18,12.17,53.18,29.66,31.44,53.85c-6.95,7.73-12.46,16.64-16.98,26.01-6.64,13.77-9.46,28.37-8.42,43.68,1.06,15.65,7.62,28.57,19.76,38.37,13.29,10.73,28.86,14.75,46.68,14.01Z"/><path class="cls-3" d="M72.47,175.92c-17.81,.74-33.38-3.28-46.68-14.01-12.14-9.8-18.69-22.72-19.76-38.37-1.04-15.31,1.78-29.91,8.42-43.68,4.52-9.37,10.03-18.28,16.98-26.01C53.18,29.66,79.18,12.17,111.77,6.56c21.02-3.62,41.92-3.2,60.64,9.11,16.36,10.76,24.05,26.17,24.68,45.79,.76,23.59-8.04,43.58-22.24,61.37-21.5,26.93-49.09,44.7-83.07,51.84-6.6,1.39-13.41,1.79-19.3,1.25ZM131.33,7.73c-11.79-.31-23.29,1.8-34.36,5.66-24.01,8.38-44.85,21.57-61.47,41.14-15.21,17.91-26.11,37.47-26.63,61.72-.4,18.85,6.65,33.89,21.75,45.21,12.19,9.13,26.44,11.97,41.04,12,17.47,.04,34.26-4.26,49.96-12.07,19.87-9.88,37.32-22.81,50.77-40.78,13.84-18.5,23.46-38.3,21.65-62.27-1.24-16.38-8.65-29.11-21.66-38.77-12.17-9.04-26.31-11.62-41.04-11.83Z"/><path class="cls-1" d="M131.33,7.73c14.72,.21,28.86,2.79,41.04,11.83,13.01,9.66,20.42,22.39,21.66,38.77,1.81,23.96-7.81,43.77-21.65,62.27-13.45,17.97-30.9,30.9-50.77,40.78-15.7,7.81-32.49,12.1-49.96,12.07-14.6-.03-28.86-2.86-41.04-12-15.1-11.31-22.15-26.36-21.75-45.21,.52-24.24,11.41-43.81,26.63-61.72,16.63-19.57,37.46-32.77,61.47-41.14,11.07-3.86,22.57-5.96,34.36-5.66Zm5.42,108.6c-1.05-.91-1.37-1.07-1.52-1.33-14.25-24.33-29.16-48.28-42.6-73.09-1.02-1.88-1.96-3.15-4.43-3.13-11.1,.12-22.19,.08-33.29,.03-1.93,0-3.2,.66-3.77,2.49-.45,1.45-.77,3.01,.45,4.19,1.26,1.21,2.98,1.16,4.65,1.34,7.56,.82,12.27,5.97,11.22,12.16-1,5.82-1.99,11.65-3.01,17.46-2.98,16.97-6.44,33.86-9.86,50.76-1.37,6.76-4.33,12.19-12.43,12.38-1.13,.03-2.25,.43-3.38,.62-3.06,.51-3.98,2.5-3.9,5.35,.1,3.21,2.45,2.61,4.31,2.55,7.91-.26,15.82-.9,23.72-.87,5.25,.02,10.46,1.19,15.77,.94,3.19-.15,3.68-2.15,3.93-4.63,.26-2.68-1.05-3.44-3.52-3.43-1.44,0-2.88-.62-4.34-.88-7.81-1.39-10.3-4.49-8.95-12.24,3.49-20.11,5.87-40.42,10.29-60.86,.94,1.25,1.74,2.08,2.28,3.05,12.22,21.71,24.65,43.3,36.53,65.19,7.56,13.93,7.2,14.12,23.03,13.75,.33,0,.66-.03,.99,0,2.21,.18,3.12-.66,3.41-3.05,1.15-9.44,2.41-18.88,3.95-28.27,2.89-17.65,5.97-35.28,9.04-52.9,1.57-9.02,4.01-17.24,15.69-17.41,2.36-.04,3.13-2.52,3.08-4.95-.04-2.27-1.25-2.74-3.18-2.73-13.25,.03-26.5,.02-39.75,.01-1.56,0-3.14,.19-3.57,1.98-.37,1.57-.77,3.36,.6,4.69,1.26,1.22,2.99,1.13,4.66,1.33,10.98,1.27,13.66,4.28,12.32,13.4-1.36,9.25-2.54,18.53-3.93,27.77-1.38,9.2-2.91,18.37-4.5,28.33Z"/><path class="cls-2" d="M136.75,116.33c1.59-9.96,3.12-19.13,4.5-28.33,1.38-9.25,2.57-18.52,3.93-27.77,1.34-9.11-1.35-12.13-12.32-13.4-1.66-.19-3.39-.1-4.66-1.33-1.37-1.32-.97-3.11-.6-4.69,.42-1.78,2-1.98,3.57-1.98,13.25,0,26.5,.01,39.75-.01,1.93,0,3.14,.47,3.18,2.73,.04,2.43-.72,4.91-3.08,4.95-11.69,.17-14.12,8.39-15.69,17.41-3.07,17.62-6.15,35.25-9.04,52.9-1.54,9.39-2.8,18.82-3.95,28.27-.29,2.39-1.2,3.22-3.41,3.05-.33-.03-.66,0-.99,0-15.82,.38-15.46,.18-23.03-13.75-11.89-21.89-24.31-43.49-36.53-65.19-.55-.97-1.34-1.8-2.28-3.05-4.42,20.44-6.8,40.74-10.29,60.86-1.35,7.75,1.14,10.85,8.95,12.24,1.46,.26,2.89,.88,4.34,.88,2.47-.01,3.78,.75,3.52,3.43-.24,2.48-.74,4.48-3.93,4.63-5.31,.26-10.53-.92-15.77-.94-7.91-.03-15.81,.61-23.72,.87-1.85,.06-4.21,.66-4.31-2.55-.09-2.85,.84-4.84,3.9-5.35,1.13-.19,2.25-.59,3.38-.62,8.09-.19,11.06-5.62,12.43-12.38,3.42-16.89,6.88-33.79,9.86-50.76,1.02-5.81,2.01-11.64,3.01-17.46,1.06-6.19-3.66-11.35-11.22-12.16-1.67-.18-3.39-.14-4.65-1.34-1.22-1.18-.9-2.74-.45-4.19,.57-1.83,1.84-2.5,3.77-2.49,11.1,.06,22.2,.09,33.29-.03,2.47-.03,3.41,1.24,4.43,3.13,13.43,24.81,28.35,48.75,42.6,73.09,.15,.26,.47,.42,1.52,1.33Z"/></svg>